<svg width="966" height="301" viewBox="0 0 966 301" fill="none" xmlns="http://www.w3.org/2000/svg">
<path d="M939.66 33.0557H759.077V259.983H939.66V33.0557Z" fill="white"/>
<path d="M917.313 2.6576e-08H772.875C766.565 -0.00020984 760.316 1.24254 754.486 3.6573C748.655 6.07206 743.358 9.61154 738.895 14.0736C734.433 18.5357 730.893 23.8331 728.478 29.6632C726.063 35.4934 724.82 41.7421 724.819 48.0527V252.949C724.82 265.693 729.883 277.914 738.894 286.925C747.905 295.936 760.127 300.999 772.87 301H917.313C930.057 301 942.28 295.938 951.292 286.926C960.304 277.915 965.367 265.693 965.369 252.949V48.0511C965.368 35.3071 960.305 23.0854 951.293 14.0742C942.282 5.06302 930.06 0.000423808 917.316 2.6576e-08H917.313ZM807.92 236.26H784.055V104.51H807.92V236.26ZM807.544 74.552C806.033 76.0673 804.227 77.2571 802.239 78.0481C800.25 78.8391 798.121 79.2145 795.982 79.1513C793.854 79.2176 791.734 78.8557 789.748 78.087C787.763 77.3184 785.952 76.1587 784.423 74.6767C782.937 73.275 781.76 71.5781 780.968 69.6948C780.176 67.8116 779.786 65.7837 779.824 63.741C779.794 61.6808 780.186 59.6363 780.978 57.7337C781.769 55.8311 782.941 54.1109 784.423 52.6791C785.934 51.1641 787.739 49.9745 789.727 49.1835C791.714 48.3925 793.843 48.0169 795.982 48.0798C800.26 47.9435 804.417 49.5076 807.544 52.4298C809.033 53.8037 810.214 55.4786 811.006 57.3432C811.799 59.2079 812.187 61.2198 812.143 63.2456C812.189 65.3444 811.805 67.4302 811.014 69.3747C810.223 71.3192 809.042 73.0812 807.544 74.552ZM908.346 235.389C903.191 236.965 897.828 237.761 892.437 237.75C879.175 237.75 868.899 234.186 861.609 227.06C854.318 219.934 850.673 209.742 850.673 196.486V124.148H828.3V104.51H850.673V75.6707H874.537V104.506H912.324V124.147H874.537V195.495C874.537 202.621 876.318 208.09 879.881 211.901C883.444 215.712 888.539 217.618 895.168 217.619C901.92 217.8 908.521 215.599 913.813 211.402L921.27 228.556C917.481 231.704 913.081 234.032 908.346 235.392V235.389Z" fill="#5A27E7"/>
<path d="M46.1103 129.866C53.2378 125.991 61.2445 124.022 69.3559 124.148C76.4314 124.059 83.4239 125.679 89.7395 128.87C96.0276 132.165 101.342 137.051 105.151 143.042L123.299 131.357C118.299 122.379 110.722 115.106 101.548 110.476C91.6326 105.544 80.6759 103.071 69.6036 103.267C57.0975 103.046 44.739 105.996 33.682 111.844C23.3811 117.347 14.8165 125.61 8.94851 135.707C3.07898 146.323 0 158.255 0 170.385C0 182.515 3.07898 194.447 8.94851 205.063C14.8333 215.179 23.3907 223.479 33.682 229.052C44.7136 234.98 57.0824 237.975 69.6036 237.752C80.6904 237.949 91.6572 235.432 101.548 230.418C110.714 225.719 118.283 218.41 123.299 209.413L105.15 197.974C101.343 203.966 96.0287 208.852 89.7395 212.144C83.4252 215.338 76.4329 216.959 69.3575 216.87C61.2464 216.998 53.2397 215.028 46.1135 211.152C39.274 207.387 33.6621 201.734 29.9473 194.868C25.9355 187.342 23.9258 178.912 24.1111 170.387C23.9432 161.941 25.9508 153.594 29.9409 146.149C33.6597 139.284 39.272 133.632 46.1103 129.866Z" fill="#5A27E7"/>
<path d="M170.037 51.8081H146.171V236.263H170.037V51.8081Z" fill="#5A27E7"/>
<path d="M296.94 111.842C286.681 106.022 275.049 103.06 263.256 103.266C251.387 103.081 239.68 106.04 229.324 111.842C219.372 117.484 211.192 125.793 205.708 135.833C199.911 146.416 196.956 158.321 197.131 170.387C196.939 182.564 199.984 194.574 205.955 205.19C211.797 215.427 220.474 223.757 230.94 229.178C241.259 234.24 252.509 237.128 263.991 237.662C275.472 238.197 286.941 236.366 297.687 232.285C306.271 228.841 313.902 223.384 319.937 216.375L306.761 200.958C297.148 211.566 284.469 216.87 268.726 216.87C255.8 216.87 244.986 213.348 236.285 206.305C232.014 202.886 228.464 198.654 225.84 193.853C223.216 189.053 221.571 183.779 221 178.339H327.89C328.183 175.946 328.348 173.54 328.387 171.13C328.621 158.851 325.756 146.712 320.058 135.833C314.759 125.823 306.747 117.508 296.94 111.842ZM220.998 161.186C221.932 150.698 226.766 140.941 234.546 133.845C242.257 126.884 251.827 123.404 263.258 123.405C274.688 123.406 284.259 126.927 291.97 133.97C299.697 141.055 304.524 150.752 305.519 161.188L220.998 161.186Z" fill="#5A27E7"/>
<path d="M399.735 210.159L354.492 104.509H329.632L387.307 236.261H411.669L469.342 104.509H445.972L399.735 210.159Z" fill="#5A27E7"/>
<path d="M569.395 111.842C559.137 106.022 547.505 103.06 535.713 103.266C523.843 103.081 512.136 106.04 501.779 111.842C491.826 117.485 483.647 125.793 478.161 135.833C472.366 146.417 469.412 158.321 469.586 170.387C469.393 182.564 472.438 194.575 478.41 205.19C484.251 215.427 492.927 223.758 503.393 229.178C513.713 234.241 524.963 237.129 536.445 237.662C547.928 238.195 559.397 236.363 570.142 232.279C578.725 228.835 586.355 223.379 592.389 216.37L579.214 200.959C569.598 211.567 556.92 216.872 541.18 216.872C528.255 216.872 517.441 213.35 508.739 206.307C504.467 202.888 500.917 198.656 498.292 193.855C495.667 189.055 494.021 183.781 493.448 178.34H600.344C600.636 175.948 600.802 173.541 600.841 171.131C601.074 158.853 598.211 146.714 592.515 135.834C587.215 125.824 579.203 117.509 569.395 111.842ZM493.45 161.186C494.385 150.698 499.22 140.942 507 133.845C514.709 126.885 524.28 123.405 535.713 123.405C547.145 123.405 556.716 126.926 564.424 133.97C572.15 141.055 576.977 150.752 577.972 161.188L493.45 161.186Z" fill="#5A27E7"/>
<path d="M650.56 126.637V104.51H627.691V236.264H651.554V170.632C651.554 156.38 655.241 145.402 662.616 137.696C669.99 129.99 680.141 126.136 693.069 126.135C694.896 126.113 696.723 126.195 698.541 126.383V103.259C686.936 103.259 677.075 105.247 668.955 109.224C661.128 112.925 654.684 119.024 650.56 126.637Z" fill="#5A27E7"/>
</svg>
